<svg width="122" height="20" viewBox="0 0 122 20" fill="none" xmlns="http://www.w3.org/2000/svg">
<g id="Group 10612">
<path id="Vector" d="M19.2353 10.2859C19.2217 10.0868 19.2027 9.93773 19.2027 9.78869C19.2027 6.72933 19.2027 3.66996 19.2027 0.610592C19.2027 0.155345 19.2244 0.133666 19.6822 0.133666C21.1257 0.133666 22.5701 0.133666 24.0153 0.133666C24.4133 0.133666 24.4473 0.167539 24.4473 0.559105V19.4017C24.4473 19.8285 24.4188 19.8529 23.9746 19.8543C22.4804 19.8543 20.9984 19.8434 19.5111 19.8624C19.3785 19.8736 19.2455 19.8451 19.1293 19.7804C19.0131 19.7157 18.919 19.6178 18.859 19.4993C18.5466 18.9776 18.2369 18.4533 17.9082 17.9411C17.5238 17.3409 17.1136 16.757 16.7278 16.1594C16.0676 15.1378 15.417 14.1108 14.7623 13.0852C14.1284 12.097 13.4994 11.1079 12.8755 10.1179C12.7913 9.98245 12.722 9.84696 12.646 9.71146L12.5441 9.72637V10.0868C12.5441 13.1895 12.5441 16.2922 12.5441 19.3949C12.5441 19.8529 12.5441 19.8543 12.0782 19.8543C10.6451 19.8543 9.21068 19.8461 7.77762 19.861C7.46384 19.861 7.37012 19.7689 7.37012 19.4546C7.37827 13.1416 7.37827 6.82823 7.37012 0.514394C7.37012 0.213605 7.46249 0.124182 7.75725 0.126892C9.27724 0.137731 10.7986 0.147215 12.3172 0.120117C12.6758 0.120117 12.8348 0.277286 12.9964 0.526588C13.4352 1.23114 13.8875 1.92891 14.3249 2.63481C14.7188 3.27026 15.091 3.91926 15.489 4.552C15.8354 5.10209 16.213 5.63592 16.5594 6.17788C17.0619 6.97185 17.5442 7.77531 18.0413 8.57199C18.3795 9.11395 18.7205 9.65591 19.075 10.187C19.0981 10.2345 19.162 10.2467 19.2353 10.2859Z" fill="white"/>
<path id="Vector_2" d="M58.4 9.99889V0.561997C58.4 0.135203 58.4 0.133848 58.8319 0.133848C61.4821 0.133848 64.1295 0.10675 66.7796 0.147397C68.0601 0.170525 69.3076 0.556316 70.3765 1.25977C71.0557 1.6974 71.6534 2.21498 72.0731 2.90191C72.6165 3.79073 73.0824 4.71071 73.0824 5.79869C73.0824 6.23362 73.2291 6.6726 73.1978 7.10211C73.115 8.26326 72.9262 9.39325 72.2647 10.4135C71.7885 11.1681 71.1359 11.7962 70.363 12.244C70.1619 12.3578 70.0994 12.4458 70.238 12.6938C70.7161 13.5474 71.1562 14.424 71.6031 15.2952C72.2723 16.604 72.9393 17.9138 73.604 19.2244C73.6379 19.2922 73.6923 19.3491 73.7208 19.4168C73.7724 19.5388 73.8104 19.6648 73.8566 19.7881C73.7251 19.8205 73.5911 19.8418 73.4559 19.8517C71.7403 19.8517 70.0234 19.8382 68.3091 19.8666C67.9098 19.8734 67.7427 19.6729 67.6055 19.3843C67.2686 18.6743 66.9399 17.9589 66.6126 17.2449C66.4006 16.7788 66.205 16.3087 65.9864 15.8439C65.7989 15.4375 65.6019 15.031 65.4091 14.6327C65.2624 14.3264 65.1252 14.0135 64.9649 13.7127C64.9092 13.6097 64.8019 13.4729 64.7054 13.462C64.4039 13.4288 64.0996 13.4288 63.798 13.462C63.7328 13.4701 63.6473 13.672 63.6459 13.7845C63.6364 15.5025 63.6391 17.2219 63.6391 18.9399C63.6391 19.1458 63.6283 19.3464 63.6391 19.5564C63.6554 19.7881 63.5522 19.8544 63.3335 19.8544C61.7904 19.8544 60.2487 19.845 58.707 19.8544C58.3918 19.8544 58.3945 19.6878 58.3945 19.4629C58.3982 16.3096 58.4 13.1549 58.4 9.99889ZM63.6391 7.03978C63.6391 7.6671 63.6486 8.29442 63.6391 8.92039C63.6391 9.1602 63.7166 9.25234 63.9543 9.24827C64.7693 9.23608 65.5843 9.24827 66.3993 9.22253C66.5955 9.21936 66.788 9.1683 66.9599 9.07383C67.1318 8.97936 67.2779 8.84434 67.3855 8.68057C67.6503 8.31871 67.8211 7.897 67.8825 7.45319C67.9438 7.00937 67.894 6.55729 67.7373 6.13742C67.4221 5.23641 66.9834 4.96543 66.167 4.88413C65.4254 4.80961 64.6728 4.87329 63.9203 4.86517C63.7084 4.86517 63.6378 4.94375 63.6418 5.1524C63.6459 5.78514 63.6391 6.41246 63.6391 7.03978Z" fill="white"/>
<path id="Vector_3" d="M42.8353 9.99654V0.592172C42.8353 0.13828 42.8353 0.134216 43.2822 0.134216C47.5175 0.134216 51.7519 0.131958 55.9854 0.127441C56.3074 0.127441 56.416 0.211445 56.4106 0.547461C56.3916 1.90236 56.3943 3.24914 56.4106 4.59997C56.4106 4.9116 56.3196 5.00644 56.0031 5.00644C53.4942 4.9956 50.9867 5.00644 48.4778 5.00644C48.0513 5.00644 48.05 5.00644 48.05 5.43053C48.05 6.05785 48.0595 6.68517 48.05 7.31248C48.05 7.5645 48.126 7.64715 48.3855 7.64579C50.1337 7.63495 51.8805 7.64579 53.6287 7.64579C54.0715 7.64579 54.0729 7.64579 54.0729 8.09562C54.0729 9.30554 54.0634 10.5168 54.0729 11.7268C54.0729 12.0479 53.9669 12.1332 53.6654 12.1332C51.9063 12.121 50.1473 12.1332 48.3882 12.1197C48.107 12.1197 48.0391 12.2023 48.0459 12.4652C48.0608 13.1792 48.0649 13.8932 48.0459 14.6059C48.0364 14.9175 48.1342 15.0124 48.4534 15.0124C50.9949 15.0016 53.535 15.0056 56.0765 15.0124C56.5532 15.0124 56.5532 15.0124 56.5546 15.4934C56.5546 16.8225 56.5451 18.1517 56.5546 19.4809C56.5546 19.7925 56.4649 19.8873 56.1471 19.8873C51.8465 19.8792 47.5451 19.8792 43.2428 19.8873C42.9086 19.8873 42.8203 19.7816 42.8203 19.4592C42.8393 16.2887 42.8353 13.1426 42.8353 9.99654Z" fill="white"/>
<path id="Vector_4" d="M96.5457 0.930953C96.2428 1.16671 95.9711 1.37672 95.7022 1.58944C95.0273 2.10743 94.4303 2.7193 93.9295 3.40636C93.6714 3.76947 93.374 3.94832 92.8768 3.88599C91.3826 3.7085 90.0243 4.13936 88.8018 5.00785C88.1824 5.44317 87.6514 5.99165 87.2369 6.62425C86.9021 7.13666 86.6569 7.70199 86.5116 8.2962C86.3554 8.93436 86.2019 9.56032 86.2399 10.2161C86.2839 11.1366 86.5277 12.0367 86.9544 12.8541C87.6581 14.1951 88.8358 15.2279 90.2593 15.7522C90.948 16.0232 91.6706 16.0923 92.4136 16.1086C94.3153 16.1479 95.8665 15.3837 97.1054 14.0085C97.6734 13.3507 98.0964 12.5812 98.3469 11.7498C98.5846 11.025 98.5995 10.3204 98.6186 9.59419C98.6349 9.05223 98.4637 8.54008 98.2735 8.03741C98.2126 7.81108 98.1335 7.58998 98.0372 7.37622C97.9829 7.304 97.9554 7.21525 97.9594 7.12507C97.9633 7.0349 97.9985 6.94889 98.0589 6.88168C98.7571 5.95493 99.6224 5.24767 100.74 4.89404C100.821 4.88951 100.902 4.90466 100.975 4.93818C101.049 4.9717 101.113 5.02258 101.163 5.08644C101.363 5.41498 101.534 5.75993 101.675 6.11752C101.921 6.72045 102.191 7.30848 102.233 7.98322C102.281 8.71486 102.489 9.43974 102.505 10.17C102.505 10.7689 102.336 11.3705 102.233 11.968C102.185 12.3385 102.107 12.7045 102.001 13.0627C101.646 14.1346 101.119 15.1415 100.439 16.0435C99.1742 17.676 97.4424 18.887 95.4726 19.5161C94.153 19.9431 92.7584 20.0899 91.3786 19.947C90.1444 19.818 88.9459 19.4567 87.8468 18.882C86.9268 18.4257 86.0884 17.8215 85.3651 17.0936C84.7226 16.4405 84.2092 15.6506 83.7039 14.8797C83.4095 14.3945 83.1655 13.8806 82.9758 13.3459C82.8392 12.9648 82.7338 12.5733 82.6607 12.1753C82.5322 11.6604 82.4383 11.1377 82.3795 10.6104C82.3428 10.1348 82.4134 9.64975 82.4392 9.17011C82.4392 9.09559 82.4705 9.02243 82.4773 8.94791C82.6861 6.67688 83.6847 4.55022 85.2999 2.93621C86.1768 2.05314 87.2164 1.3474 88.3617 0.857789C89.0951 0.552334 89.8579 0.322609 90.6383 0.172208C91.6395 -0.0226131 92.666 -0.0523642 93.6769 0.0841396C94.5748 0.196596 95.4427 0.527192 96.3243 0.76159C96.3759 0.780559 96.4343 0.845594 96.5457 0.930953Z" fill="#1676F3"/>
<path id="Vector_5" d="M98.2803 19.0837C98.7258 18.7287 99.1469 18.4469 99.5028 18.0987C100.056 17.5568 100.572 16.9823 101.085 16.4051C101.262 16.2059 101.424 16.0582 101.711 16.0853C101.959 16.1097 102.211 16.0853 102.46 16.0989C104.07 16.1599 105.448 15.5935 106.621 14.534C107.514 13.7516 108.149 12.7168 108.439 11.5667C108.565 11.1388 108.652 10.7002 108.697 10.2565C108.734 9.65562 108.651 9.05346 108.454 8.48434C108.305 7.98347 108.116 7.49546 107.888 7.02511C107.524 6.31482 107.008 5.69312 106.376 5.20412C105.759 4.70866 105.054 4.33441 104.298 4.10123C103.593 3.89585 102.858 3.81334 102.124 3.85735C101.564 3.87929 101.01 3.9801 100.478 4.15678C99.6441 4.44944 98.878 4.86404 98.2694 5.51168C97.8096 5.99208 97.3864 6.50612 97.0034 7.0495C96.7847 7.36654 96.6788 7.76759 96.5525 8.14155C96.2224 9.11572 96.2808 10.1211 96.4017 11.1142C96.4789 11.5856 96.623 12.0436 96.8296 12.4745C97.0034 12.8702 96.8296 13.1398 96.6163 13.4108C95.9738 14.2034 95.1316 14.7169 94.1903 15.0841C93.9811 15.164 93.8181 15.1098 93.7339 14.9106C93.4441 14.235 93.1625 13.5575 92.889 12.8783C92.7816 12.6262 92.6971 12.365 92.6363 12.0979C92.4266 11.1295 92.3616 10.1356 92.4434 9.14824C92.4978 8.54802 92.6879 7.95999 92.8265 7.36925C92.8859 7.04285 92.9769 6.72296 93.0982 6.41405C93.4187 5.70814 93.7339 5.00495 94.193 4.35866C95.1116 2.99672 96.3637 1.8914 97.8307 1.14754C98.6063 0.749305 99.4272 0.445872 100.276 0.243825C101.091 0.0622683 101.946 0.0527839 102.786 0.03788C103.368 0.0298034 103.948 0.0852328 104.518 0.203178C106.414 0.582343 108.156 1.50968 109.527 2.86962C109.974 3.33808 110.389 3.836 110.769 4.36002C111.09 4.7834 111.359 5.2432 111.572 5.72982C111.836 6.32565 112.051 6.9419 112.216 7.57249C112.433 8.49789 112.463 9.41786 112.487 10.35C112.512 11.2822 112.297 12.1656 112.069 13.0422C111.933 13.5842 111.626 14.0787 111.356 14.5733C111.071 15.0963 110.799 15.6491 110.405 16.0921C109.808 16.7537 109.17 17.3764 108.494 17.9565C107.771 18.5755 106.929 19.0411 106.02 19.3249C105.362 19.5539 104.684 19.7235 103.995 19.8316C103.216 19.9551 102.426 19.9951 101.638 19.9509C100.884 19.8953 100.144 19.6718 99.3982 19.4902C99.0188 19.374 98.6457 19.2383 98.2803 19.0837Z" fill="#1676F3"/>
<path id="Vector_6" d="M33.724 0.134241H40.9871C41.4788 0.134241 41.4788 0.134241 41.4788 0.635554C41.4788 1.95387 41.4679 3.27219 41.4856 4.59051C41.4856 4.92924 41.3742 5.01053 41.0564 5.00782C39.6233 4.99427 38.1889 5.00782 36.7558 4.99427C36.4257 4.99427 36.3347 5.08641 36.3361 5.41429C36.3451 10.0616 36.3474 14.7094 36.3429 19.3576C36.3429 19.8535 36.3429 19.8548 35.8444 19.8548H31.5126C31.0385 19.8548 31.0385 19.8548 31.0385 19.3644V5.4861C31.0385 5.0024 31.0385 5.0024 30.5373 5.0024H26.4011C25.9393 5.0024 25.9121 4.97801 25.9121 4.53225C25.9121 3.21258 25.9121 1.89381 25.9121 0.575939C25.9121 0.169468 25.9434 0.135596 26.3617 0.135596C28.8167 0.133789 31.2708 0.133337 33.724 0.134241Z" fill="white"/>
<path id="Vector_7" d="M87.9304 19.8227C87.819 19.8335 87.7062 19.8552 87.5949 19.8552H75.2135C74.768 19.8552 74.7666 19.8552 74.7666 19.3999V0.618294C74.7666 0.140014 74.7666 0.134594 75.261 0.134594C76.7267 0.134594 78.1924 0.144079 79.6594 0.126465C79.9949 0.126465 80.0764 0.232147 80.075 0.554614C80.066 5.20373 80.066 9.85285 80.075 14.502C80.075 14.9857 80.075 14.9857 80.5763 14.9857C81.2378 14.9857 81.9007 14.9924 82.5635 14.9857C82.8243 14.9857 82.971 15.1144 83.1069 15.3176C83.4899 15.884 83.8363 16.4883 84.2954 16.9869C84.8876 17.6261 85.5318 18.2152 86.2216 18.7482C86.7079 19.1249 87.2974 19.3701 87.8407 19.675L87.9426 19.74L87.9304 19.8227Z" fill="white"/>
<path id="Vector_8" d="M107.04 0.173799C107.151 0.154031 107.262 0.14091 107.374 0.134507C110.166 0.134507 112.957 0.106054 115.747 0.156185C116.443 0.169734 117.145 0.397358 117.823 0.597883C118.759 0.876993 119.536 1.43521 120.221 2.12486C120.696 2.62388 121.084 3.19805 121.369 3.8239C121.801 4.70866 121.861 5.66793 121.974 6.62584C122.03 7.28769 121.995 7.95403 121.872 8.60671C121.667 10.029 120.964 11.3333 119.889 12.2893C119.136 12.9559 118.239 13.4404 117.268 13.7052C115.941 14.09 114.579 14.0697 113.216 14.067C112.692 14.067 112.692 14.067 112.692 14.5751C112.692 16.2009 112.683 17.8187 112.692 19.4405C112.692 19.7738 112.586 19.8646 112.263 19.8619C110.785 19.847 109.308 19.8619 107.832 19.8497C107.712 19.8497 107.528 19.7968 107.488 19.7142C107.403 19.5367 107.548 19.4554 107.708 19.3633C108.515 18.8931 109.299 18.3905 109.929 17.6845C110.307 17.2605 110.754 16.8865 111.069 16.4218C111.576 15.6993 112.021 14.9361 112.401 14.1401C112.713 13.4309 112.95 12.6912 113.108 11.933C113.222 11.4235 113.191 10.8816 113.204 10.3532C113.233 9.31668 113.024 9.42236 114.167 9.41288C114.504 9.41288 114.846 9.41287 115.177 9.38713C115.519 9.37746 115.848 9.24911 116.106 9.02412C116.364 8.79912 116.535 8.49153 116.591 8.15417C116.676 7.69486 116.767 7.21522 116.718 6.75862C116.645 6.07033 116.428 5.39153 115.69 5.10429C115.346 4.97751 114.984 4.90661 114.617 4.89428C113.913 4.84822 113.206 4.84822 112.502 4.89428C112.035 4.93492 111.839 4.67749 111.65 4.36993C111.074 3.43946 110.36 2.60163 109.531 1.88504C108.864 1.31193 108.132 0.818976 107.35 0.416327C107.249 0.36213 107.146 0.310644 107.043 0.259158L107.04 0.173799Z" fill="white"/>
<path id="Vector_9" d="M0 9.95867V0.588169C0 0.136987 1.29542e-07 0.134277 0.446897 0.134277C1.9112 0.134277 3.37641 0.134277 4.84252 0.134277C5.29213 0.134277 5.30436 0.147826 5.30436 0.58546V19.4186C5.30436 19.8481 5.30436 19.8495 4.86697 19.8508H0.438747C0.00135854 19.8508 0 19.8508 0 19.4213V9.95867Z" fill="white"/>
</g>
</svg>
